PathFileType	4	(X/Y/Z)	D:\TRACE\spotREDO_2-26-24\spot_justArm_Motion_1_2-platform.trc
DataRate	CameraRate	NumFrames	NumMarkers	Units	OrigDataRate	OrigDataStartFrame	OrigNumFrames
100.00	100.00	      30	5	mm	100.00	5251	      7000
Frame#	Time	Left_Front			Right_Front			Left_Aft			Right_Aft			Post			
		X1	Y1	Z1	X2	Y2	Z2	X3	Y3	Z3	X4	Y4	Z4	X5	Y5	Z5	

5251	52.500	-727.60626	10.62828	-571.76874	687.07343	17.43178	-487.29202	-798.60175	-10.58502	647.35455	770.68433	-4.27301	651.52722	-18.36990	647.63074	-963.89703	
5252	52.510	-727.04138	10.80727	-571.70496	687.77466	17.64507	-487.16089	-797.83386	-10.95772	647.42194	771.32751	-4.80852	651.27002	-17.56213	647.92017	-963.46179	
5253	52.520	-726.08026	11.08794	-571.60870	688.82965	17.86284	-487.08954	-797.08954	-11.09906	647.53778	772.33026	-5.13704	651.15686	-16.35616	648.34442	-962.79688	
5254	52.530	-725.29315	11.45606	-571.55798	689.21655	18.04051	-487.09976	-796.30341	-11.27490	647.65729	772.80200	-5.30951	651.47064	-15.94834	648.85138	-962.53052	
5255	52.540	-724.55359	11.62344	-571.42432	690.03699	18.08463	-486.97104	-795.59198	-11.48807	647.65784	773.87115	-5.79671	651.58258	-15.36166	649.40143	-961.83954	
5256	52.550	-723.87830	11.84243	-571.35547	690.99579	18.57602	-486.98355	-794.75732	-11.76853	647.63416	774.32672	-6.07306	651.72858	-14.67523	649.93829	-961.14337	
5257	52.560	-723.09686	12.10413	-571.28125	691.98248	18.65226	-486.78082	-793.87848	-12.17493	647.70367	775.13501	-6.01781	651.79694	-13.83450	650.30200	-960.56079	
5258	52.570	-722.23230	12.41293	-571.21136	692.47888	18.90204	-486.70743	-793.29761	-12.48211	647.69336	775.71594	-6.39127	651.85748	-13.05099	650.60114	-959.95197	
5259	52.580	-721.35077	12.56172	-570.98846	693.29541	18.98155	-486.69589	-792.39545	-12.62205	647.85828	776.73364	-6.57947	651.93530	-12.21546	651.10468	-959.54578	
5260	52.590	-720.74078	12.80917	-571.02588	693.94562	19.32907	-486.60181	-791.60730	-12.97580	647.86371	777.62225	-6.59696	652.06976	-11.67358	651.51849	-959.56586	
5261	52.600	-719.72449	13.30170	-570.97650	694.86389	19.68213	-486.56396	-790.73187	-13.15514	648.02863	778.57397	-6.97444	652.26703	-10.60062	652.07416	-959.49689	
5262	52.610	-719.15149	13.52404	-570.94128	695.89618	20.02559	-486.43042	-789.89551	-13.51700	648.15356	779.25110	-7.16730	652.31952	-9.71391	652.49799	-959.31470	
5263	52.620	-718.15717	13.81808	-570.84485	696.46967	20.14373	-486.42352	-789.00452	-13.76954	648.14197	780.25592	-7.42080	652.33142	-8.92061	652.67828	-959.14795	
5264	52.630	-717.34991	14.18395	-570.86285	697.48358	20.45260	-486.14908	-788.16351	-13.83733	648.16895	781.06207	-7.69397	652.37463	-7.92820	653.00482	-958.78973	
5265	52.640	-716.41913	14.26453	-570.66577	698.53040	20.38533	-486.18643	-787.24567	-14.07358	648.32422	781.35657	-7.99893	652.39722	-7.16384	653.54865	-958.70502	
5266	52.650	-715.74854	14.53676	-570.63354	699.24182	20.64247	-486.06473	-786.56732	-14.38374	648.34790	782.63947	-8.23351	652.50580	-6.43960	654.03552	-958.50562	
5267	52.660	-714.59155	14.63003	-570.54980	699.88232	20.85473	-486.05612	-785.82324	-14.81931	648.28772	783.46600	-8.43946	652.58551	-5.63321	654.32593	-958.17303	
5268	52.670	-713.82587	14.72935	-570.76581	701.01984	21.02988	-485.95215	-784.76898	-15.06063	648.48877	784.43665	-8.61783	652.56970	-4.76389	654.79144	-957.59937	
5269	52.680	-713.16010	15.25271	-570.31653	701.75690	21.26862	-485.98056	-783.91016	-15.12112	648.60266	785.48059	-8.86939	652.64862	-3.73658	654.99866	-957.12408	
5270	52.690	-712.21783	15.51455	-570.24091	702.79407	21.51769	-485.79169	-782.93768	-15.46776	648.57434	786.31012	-9.31649	652.53479	-2.93824	655.35718	-956.61157	
5271	52.700	-711.13208	15.65006	-570.33868	703.53119	21.66691	-485.81818	-781.95306	-15.58266	648.64380	787.05438	-9.57892	652.61945	-2.12740	655.95526	-955.98682	
5272	52.710	-710.20105	15.91334	-570.22705	704.46539	21.84326	-485.69797	-781.26697	-15.69406	648.54736	788.00751	-9.95835	652.44690	-1.06510	656.25452	-955.68701	
5273	52.720	-709.56000	16.18616	-570.26196	705.59082	21.92229	-485.68011	-780.42621	-15.81989	648.56177	789.00195	-10.31571	652.47382	-0.30141	656.64893	-955.45947	
5274	52.730	-708.48004	16.32840	-570.12378	706.32733	22.34940	-485.65314	-779.15961	-16.39404	648.78967	789.96082	-10.32718	652.66748	0.83560	657.07672	-955.20276	
5275	52.740	-707.60077	16.56211	-570.06006	707.37750	22.49653	-485.52789	-778.42218	-16.54604	648.82892	790.94836	-10.24770	652.94678	1.68082	657.24799	-955.04437	
5276	52.750	-706.51422	16.88088	-569.86261	708.22382	22.60030	-485.68823	-777.64484	-16.92751	648.85950	791.64862	-10.47688	653.09436	2.67904	657.58606	-954.91199	
5277	52.760	-705.96820	16.92489	-570.02350	708.88794	22.71136	-485.53766	-776.47021	-16.81364	648.88812	792.60474	-10.64099	653.08636	3.50996	657.94623	-954.75323	
5278	52.770	-704.81982	17.22800	-569.87128	710.26984	22.83832	-485.40918	-775.71454	-16.81790	648.95093	793.61200	-10.93266	653.13000	4.49786	658.24762	-954.62238	
5279	52.780	-703.95660	17.46194	-569.84955	711.03583	23.05889	-485.20969	-774.67603	-17.41267	648.96954	794.52057	-10.95651	653.11877	5.20169	658.50555	-954.64404	
5280	52.790	-702.75293	17.42361	-569.71503	711.93939	23.22469	-485.22556	-773.55035	-17.60815	648.98383	795.62878	-11.49086	653.02582	6.27426	659.13171	-954.46539	
